PathFileType	4	(X/Y/Z)	/Users/itak/Documents/Research/Walk-IL/dataset/trc/00353_00011.trc
DataRate	CameraRate	NumFrames	NumMarkers	Units	OrigDataRate	OrigDataStartFrame	OrigNumFrames
100.000000	100.000000	4	55	mm	100.000000	421	674
Frame#	Time	RPSI			LPSI			L3			STRN			T10			C7			CLAV			RBAK			LBAK			LSHO			LUPA			LAEL			LAOL			LWTS			LWPS			LFRA			LIFD			LHPS			LHTS			RSHO			RUPA			RAEL			RAOL			RWTS			RWPS			RFRA			RIFD			RHTS			RHPS			RBHD			LFHD			RFHD			LBHD			LHIP			RASI			LASI			LKNE			LTHI			LANK			LTIP			LTOE			LMT1			LMT5			LHEE			RKNE			RANK			RTIP			RTOE			RMT1			RMT5			RHEE			RHIP			RTHI			*53			*54			
		X1	Y1	Z1	X2	Y2	Z2	X3	Y3	Z3	X4	Y4	Z4	X5	Y5	Z5	X6	Y6	Z6	X7	Y7	Z7	X8	Y8	Z8	X9	Y9	Z9	X10	Y10	Z10	X11	Y11	Z11	X12	Y12	Z12	X13	Y13	Z13	X14	Y14	Z14	X15	Y15	Z15	X16	Y16	Z16	X17	Y17	Z17	X18	Y18	Z18	X19	Y19	Z19	X20	Y20	Z20	X21	Y21	Z21	X22	Y22	Z22	X23	Y23	Z23	X24	Y24	Z24	X25	Y25	Z25	X26	Y26	Z26	X27	Y27	Z27	X28	Y28	Z28	X29	Y29	Z29	X30	Y30	Z30	X31	Y31	Z31	X32	Y32	Z32	X33	Y33	Z33	X34	Y34	Z34	X35	Y35	Z35	X36	Y36	Z36	X37	Y37	Z37	X38	Y38	Z38	X39	Y39	Z39	X40	Y40	Z40	X41	Y41	Z41	X42	Y42	Z42	X43	Y43	Z43	X44	Y44	Z44	X45	Y45	Z45	X46	Y46	Z46	X47	Y47	Z47	X48	Y48	Z48	X49	Y49	Z49	X50	Y50	Z50	X51	Y51	Z51	X52	Y52	Z52	X53	Y53	Z53	X54	Y54	Z54	X55	Y55	Z55	

422	4.21	269.2230529785156	947.0135498046875	-310.6024169921875	326.7393493652344	957.2648315429688	-427.463623046875	296.0990905761719	1013.965270996094	-363.9326477050781	499.3818359375	1197.124389648438	-256.4703674316406	292.6877746582031	1134.153686523438	-373.8820495605469	336.0419311523438	1382.154174804688	-361.9808044433594	464.685302734375	1323.895141601562	-277.4765625	262.9848327636719	1241.45654296875	-333.1459655761719	375.6554565429688	1348.26025390625	-454.9666137695312	478.2013244628906	1362.111938476562	-459.4266357421875	494.71826171875	1243.567260742188	-528.1883544921875	521.581787109375	1043.162353515625	-543.4829711914062	441.27978515625	1024.594116210938	-520.3922729492188	604.8740844726562	804.2661743164062	-475.3937377929688	594.8674926757812	794.9764404296875	-543.0821533203125	543.9696655273438	939.8640747070312	-550.5243530273438	622.8597412109375	651.4389038085938	-478.2950744628906	592.8220825195312	723.8390502929688	-541.1383056640625	626.509765625	726.7682495117188	-486.1595153808594	295.8506469726562	1367.846313476562	-197.0514984130859	248.5723876953125	1303.731201171875	-154.9950103759766	212.1363525390625	1036.982543945312	-141.5525817871094	239.8954772949219	1033.124755859375	-230.3712463378906	371.1773376464844	847.8811645507812	-92.69704437255859	308.4734802246094	816.7051391601562	-61.80852890014648	232.4394836425781	973.1648559570312	-116.6200637817383	422.8225402832031	684.3462524414062	-66.74604797363281	411.1527099609375	756.5761108398438	-56.86421203613281	344.5101013183594	739.903564453125	-47.8597412109375	337.5274658203125	1585.867431640625	-264.4804382324219	544.8060302734375	1584.749633789062	-241.4940490722656	472.2042541503906	1582.02685546875	-171.1467590332031	421.5133056640625	1587.57421875	-381.4688110351562	452.3243408203125	910.5662231445312	-485.9170837402344	407.0980224609375	917.1229248046875	-172.3662261962891	532.5463256835938	932.1884155273438	-376.3381652832031	597.978515625	470.2224426269531	-465.6199645996094	575.7094116210938	599.9828491210938	-469.5929565429688	280.9405822753906	215.4368133544922	-636.753662109375	452.030517578125	327.7864379882812	-561.3982543945312	352.2776794433594	44.38078689575195	-532.61669921875	300.2786865234375	102.0219345092773	-511.7083740234375	334.2196044921875	101.6843643188477	-621.5773315429688	236.923095703125	244.62841796875	-582.8489379882812	442.0594177246094	429.0059204101562	-242.7603454589844	455.2144775390625	43.76321029663086	-374.6786499023438	475.2575378417969	313.6065673828125	-270.8595886230469	642.0914306640625	37.80698013305664	-302.1536865234375	621.9404296875	31.18770599365234	-368.4366149902344	525.4205322265625	33.67702102661133	-300.6567993164062	444.3743591308594	44.07471084594727	-442.4866638183594	295.8776245117188	884.7061157226562	-182.1332244873047	395.9886474609375	679.1763305664062	-166.5816192626953	nan	nan	nan	nan	nan	nan	
423	4.22	275.1148986816406	948.1637573242188	-309.680908203125	335.1296691894531	958.5626220703125	-425.218505859375	303.1354675292969	1014.869384765625	-362.1387023925781	504.464599609375	1198.1103515625	-250.9496612548828	299.4063110351562	1135.247436523438	-371.9541931152344	343.1893615722656	1383.156616210938	-359.1274108886719	470.2003173828125	1324.812255859375	-272.6063842773438	269.6556701660156	1242.544677734375	-331.4129333496094	384.161376953125	1349.193481445312	-451.4718933105469	486.81640625	1363.019165039062	-454.371337890625	504.0040588378906	1244.481567382812	-522.9436645507812	529.0520629882812	1043.841918945312	-537.6982421875	448.1573791503906	1026.12109375	-516.0294799804688	606.3912963867188	802.1182250976562	-470.3742065429688	597.4921264648438	794.1460571289062	-538.4519653320312	549.8690795898438	940.2864379882812	-544.8599853515625	621.2648315429688	648.8131103515625	-474.4108276367188	593.5573120117188	722.9450073242188	-537.5304565429688	626.1873168945312	724.142822265625	-481.850341796875	300.2960205078125	1369.040283203125	-194.9114074707031	252.4815673828125	1304.9423828125	-153.3602600097656	216.5867156982422	1038.003540039062	-138.8912353515625	244.4556579589844	1033.971069335938	-227.6068878173828	381.2478332519531	854.9274291992188	-88.1507568359375	319.7882080078125	821.985595703125	-56.67247772216797	238.4324798583984	975.1737670898438	-113.3670883178711	438.9651794433594	693.9921875	-59.00048065185547	424.5709228515625	765.9111328125	-50.52230453491211	358.604736328125	746.8973388671875	-41.17060089111328	343.827392578125	1586.942993164062	-261.0649108886719	550.71337890625	1585.105834960938	-235.3011779785156	477.3099670410156	1582.473754882812	-165.8782501220703	429.3603515625	1588.587036132812	-376.9013671875	462.3349609375	912.1392822265625	-480.7615356445312	409.94873046875	917.834716796875	-168.2955780029297	539.5484619140625	933.5799560546875	-369.4801940917969	613.5188598632812	473.3353576660156	-454.4905700683594	589.265380859375	602.8441772460938	-460.3359680175781	305.9920959472656	211.1481170654297	-632.7791748046875	473.0193176269531	328.2535705566406	-553.5590209960938	385.022705078125	44.46541595458984	-527.5413208007812	329.294189453125	98.57744598388672	-507.3282470703125	365.2514038085938	100.8881225585938	-616.5119018554688	259.7681274414062	238.1057281494141	-579.6634521484375	442.5205993652344	428.8569946289062	-241.2820892333984	455.0840759277344	43.67072296142578	-374.539794921875	475.5893859863281	313.6033325195312	-270.1783447265625	642.046630859375	37.76080322265625	-302.1582641601562	621.8381958007812	31.28899574279785	-368.3666381835938	525.294921875	33.58664321899414	-300.5216979980469	444.3022766113281	44.1840705871582	-442.3800659179688	298.9218139648438	885.356201171875	-180.8140869140625	397.8216247558594	679.2623291015625	-164.8547058105469	nan	nan	nan	nan	nan	nan	
424	4.23	280.9377136230469	949.158935546875	-308.8194274902344	343.5031433105469	959.7416381835938	-422.9577331542969	310.1093139648438	1015.754638671875	-360.4131469726562	509.3811645507812	1199.04833984375	-245.2908630371094	306.0848693847656	1136.294677734375	-370.0244750976562	350.294921875	1384.110595703125	-356.2540588378906	475.5969543457031	1325.680297851562	-267.6448669433594	276.1334228515625	1243.652709960938	-329.7152099609375	392.8190612792969	1350.0859375	-447.9425048828125	495.4244384765625	1363.869262695312	-449.1625671386719	513.2899780273438	1245.373657226562	-517.5847778320312	536.355712890625	1044.495361328125	-531.9715576171875	454.9201354980469	1027.652221679688	-511.6343078613281	608.0518188476562	800.2568359375	-465.4905700683594	600.1497802734375	793.486083984375	-533.8970336914062	555.6400756835938	940.7289428710938	-539.2736206054688	619.8966064453125	646.5432739257812	-470.6544494628906	594.41845703125	722.232666015625	-533.9226684570312	626.0917358398438	721.8733520507812	-477.6690979003906	304.6119689941406	1370.20361328125	-192.8231964111328	256.2172546386719	1306.141479492188	-151.8374328613281	220.7837677001953	1039.0302734375	-136.3402557373047	248.8621063232422	1034.81982421875	-224.9208526611328	390.7409973144531	862.0545654296875	-83.64087677001953	330.4993591308594	827.349853515625	-51.71884918212891	244.0626373291016	977.203857421875	-110.2436065673828	454.2760620117188	703.9059448242188	-51.52842330932617	437.1956176757812	775.4024047851562	-44.32374572753906	371.9589538574219	754.0609130859375	-34.76263046264648	350.0072937011719	1587.97607421875	-257.6519165039062	556.4788208007812	1585.408813476562	-229.0323638916016	482.2523803710938	1582.88525390625	-160.5746917724609	437.1462097167969	1589.541259765625	-372.2763977050781	472.3184509277344	913.6332397460938	-475.5182189941406	412.6315612792969	918.4692993164062	-164.3199005126953	546.4420776367188	934.8944091796875	-362.5482177734375	628.23583984375	476.4546813964844	-443.0742492675781	602.1697387695312	605.6578979492188	-450.835205078125	331.4130554199219	206.0386810302734	-628.06982421875	493.6729736328125	328.4171752929688	-545.1884765625	418.4212646484375	44.45063400268555	-521.3195190429688	358.9148864746094	94.66870880126953	-501.9920959472656	396.8517150878906	99.89413452148438	-610.3960571289062	282.9666137695312	230.4719390869141	-575.8349609375	442.9352416992188	428.7193603515625	-239.96826171875	454.996337890625	43.59391021728516	-374.4134521484375	475.8314819335938	313.6141967773438	-269.5749206542969	642.0098266601562	37.71382904052734	-302.1658630371094	621.7472534179688	31.37290382385254	-368.3110656738281	525.1954345703125	33.50722885131836	-300.4103393554688	444.2762145996094	44.29282760620117	-442.2703552246094	301.8911743164062	885.8671264648438	-179.5805969238281	399.5301513671875	679.2737426757812	-163.252197265625	nan	nan	nan	nan	nan	nan	
425	4.24	286.7013549804688	949.9849243164062	-307.9928283691406	351.8494873046875	960.77685546875	-420.6627807617188	316.9696350097656	1016.619018554688	-358.7577819824219	514.1444091796875	1199.910400390625	-239.5084533691406	312.7592163085938	1137.278076171875	-368.0702819824219	357.3656005859375	1385.00390625	-353.3460083007812	480.8949584960938	1326.48193359375	-262.5982666015625	282.3700561523438	1244.765991210938	-328.0594482421875	401.6301879882812	1350.94384765625	-444.3660278320312	504.0227661132812	1364.639892578125	-443.7929077148438	522.5582275390625	1246.21728515625	-512.1066284179688	543.4896850585938	1045.104736328125	-526.3016357421875	461.5675048828125	1029.154296875	-507.2023010253906	609.905517578125	798.6567993164062	-460.7522583007812	602.8355102539062	792.9567260742188	-529.4238891601562	561.2733154296875	941.1586303710938	-533.7899780273438	618.843994140625	644.619140625	-467.02685546875	595.4164428710938	721.6574096679688	-530.2908325195312	626.3118286132812	719.94970703125	-473.6166687011719	308.8125915527344	1371.317138671875	-190.7770233154297	259.7986145019531	1307.3046875	-150.4159698486328	224.753173828125	1040.03564453125	-133.8932189941406	253.1266784667969	1035.645874023438	-222.3128814697266	399.661865234375	869.1749877929688	-79.17269134521484	340.59228515625	832.7131958007812	-46.94815063476562	249.3492431640625	979.2150268554688	-107.2434463500977	468.7204284667969	713.9508056640625	-44.36141967773438	449.0094299316406	784.9248657226562	-38.28902435302734	384.5479431152344	761.2933349609375	-28.65812110900879	356.0622253417969	1588.94921875	-254.2401428222656	562.0991821289062	1585.660400390625	-222.6887054443359	487.0164184570312	1583.261840820312	-155.2453155517578	444.8653259277344	1590.422973632812	-367.5929260253906	482.2321472167969	915.0158081054688	-470.1963806152344	415.19775390625	919.0051879882812	-160.4060516357422	553.2401733398438	936.1131591796875	-355.5621337890625	642.1246948242188	479.5181274414062	-431.4129943847656	614.4413452148438	608.3682861328125	-441.1149597167969	357.216064453125	200.1637573242188	-622.5494995117188	513.9672241210938	328.220458984375	-536.2633056640625	452.2228698730469	44.41286468505859	-513.7893676757812	388.9720153808594	90.41674041748047	-495.5952758789062	428.888671875	98.74210357666016	-603.101318359375	306.5216369628906	221.7985992431641	-571.3269653320312	443.3274536132812	428.5913391113281	-238.8341064453125	454.9500122070312	43.53637313842773	-374.3029174804688	475.9859924316406	313.6217956542969	-269.029541015625	641.9808959960938	37.66567611694336	-302.1744079589844	621.6766357421875	31.44350051879883	-368.2710571289062	525.1231079101562	33.44050216674805	-300.3226928710938	444.302490234375	44.40069961547852	-442.1589050292969	304.8278198242188	886.224609375	-178.4171752929688	401.1181945800781	679.20361328125	-161.7753753662109	nan	nan	nan	nan	nan	nan	
